<svg width="30" height="30" viewBox="0 0 30 30" fill="none" xmlns="http://www.w3.org/2000/svg">
<path d="M15.6638 2.14872C15.5767 2.06141 15.4732 1.99214 15.3593 1.94488C15.2454 1.89762 15.1233 1.87329 15 1.87329C14.8767 1.87329 14.7546 1.89762 14.6407 1.94488C14.5268 1.99214 14.4233 2.06141 14.3363 2.14872L3.08625 13.3987C2.99925 13.4859 2.93029 13.5895 2.88332 13.7033C2.83635 13.8172 2.81228 13.9393 2.8125 14.0625V27.1875C2.8125 27.4361 2.91127 27.6746 3.08709 27.8504C3.2629 28.0262 3.50136 28.125 3.75 28.125H12.1875C12.4361 28.125 12.6746 28.0262 12.8504 27.8504C13.0262 27.6746 13.125 27.4361 13.125 27.1875V19.6875H16.875V27.1875C16.875 27.4361 16.9738 27.6746 17.1496 27.8504C17.3254 28.0262 17.5639 28.125 17.8125 28.125H26.25C26.4986 28.125 26.7371 28.0262 26.9129 27.8504C27.0887 27.6746 27.1875 27.4361 27.1875 27.1875V14.0625C27.1877 13.9393 27.1637 13.8172 27.1167 13.7033C27.0697 13.5895 27.0008 13.4859 26.9138 13.3987L24.375 10.8618V4.68747C24.375 4.43883 24.2762 4.20037 24.1004 4.02455C23.9246 3.84874 23.6861 3.74997 23.4375 3.74997H21.5625C21.3139 3.74997 21.0754 3.84874 20.8996 4.02455C20.7238 4.20037 20.625 4.43883 20.625 4.68747V7.11184L15.6638 2.14872ZM4.6875 26.25V14.4506L15 4.13809L25.3125 14.4506V26.25H18.75V18.75C18.75 18.5013 18.6512 18.2629 18.4754 18.0871C18.2996 17.9112 18.0611 17.8125 17.8125 17.8125H12.1875C11.9389 17.8125 11.7004 17.9112 11.5246 18.0871C11.3488 18.2629 11.25 18.5013 11.25 18.75V26.25H4.6875Z" fill="black"/>
</svg>
