<svg width="25" height="25" viewBox="0 0 25 25" fill="none" xmlns="http://www.w3.org/2000/svg">
<path d="M7.29167 11.4583H9.37501V13.5417H7.29167V11.4583ZM7.29167 15.625H9.37501V17.7083H7.29167V15.625ZM11.4583 11.4583H13.5417V13.5417H11.4583V11.4583ZM11.4583 15.625H13.5417V17.7083H11.4583V15.625ZM15.625 11.4583H17.7083V13.5417H15.625V11.4583ZM15.625 15.625H17.7083V17.7083H15.625V15.625Z" fill="#D54C4C"/>
<path d="M5.20833 22.9167H19.7917C20.9406 22.9167 21.875 21.9823 21.875 20.8333V6.25001C21.875 5.10105 20.9406 4.16668 19.7917 4.16668H17.7083V2.08334H15.625V4.16668H9.375V2.08334H7.29167V4.16668H5.20833C4.05937 4.16668 3.125 5.10105 3.125 6.25001V20.8333C3.125 21.9823 4.05937 22.9167 5.20833 22.9167ZM19.7917 8.33334L19.7927 20.8333H5.20833V8.33334H19.7917Z" fill="#D54C4C"/>
</svg>
