<svg width="25" height="23" viewBox="0 0 25 23" fill="none" xmlns="http://www.w3.org/2000/svg">
<path d="M20.5078 5.75449V0.71875H4.49219V5.75449C3.49166 5.80167 2.54896 6.20027 1.85849 6.8681C1.16803 7.53593 0.782438 8.42206 0.78125 9.34375V17.9688H4.10156V16.5312H2.34375V9.34375C2.34445 8.77207 2.5916 8.224 3.03099 7.81976C3.47038 7.41552 4.06611 7.18814 4.6875 7.1875H20.3125C20.9339 7.18814 21.5296 7.41552 21.969 7.81976C22.4084 8.224 22.6556 8.77207 22.6562 9.34375V16.5312H20.5078V17.9688H24.2188V9.34375C24.2176 8.42206 23.832 7.53593 23.1415 6.8681C22.451 6.20027 21.5083 5.80167 20.5078 5.75449ZM18.9453 5.75H6.05469V2.15625H18.9453V5.75Z" fill="black"/>
<path d="M19.3359 8.98438H20.8984V10.4219H19.3359V8.98438Z" fill="black"/>
<path d="M5.66406 11.8594H3.71094V13.2969H5.66406V22.2812H18.9453V13.2969H20.8984V11.8594H5.66406ZM17.3828 20.8438H7.22656V13.2969H17.3828V20.8438Z" fill="black"/>
</svg>
