<svg width="26" height="26" viewBox="0 0 26 26" fill="none" xmlns="http://www.w3.org/2000/svg">
<path d="M19.7708 3.52084C19.9671 3.52085 20.1568 3.59196 20.3048 3.72101C20.4528 3.85006 20.549 4.02833 20.5757 4.22284L20.5833 4.33334V21.6667C20.5832 21.8725 20.505 22.0707 20.3645 22.2211C20.224 22.3715 20.0316 22.463 19.8262 22.477C19.6208 22.4911 19.4177 22.4266 19.2581 22.2967C19.0984 22.1668 18.9939 21.9811 18.9659 21.7772L18.9583 21.6667V16.25H16.5208C16.3245 16.25 16.1348 16.1789 15.9868 16.0498C15.8388 15.9208 15.7426 15.7425 15.7159 15.548L15.7083 15.4375V7.58334C15.7083 6.5059 16.1363 5.47259 16.8982 4.71072C17.66 3.94886 18.6934 3.52084 19.7708 3.52084V3.52084ZM13.2708 3.52084C13.4671 3.52085 13.6568 3.59196 13.8048 3.72101C13.9528 3.85006 14.049 4.02833 14.0757 4.22284L14.0833 4.33334V8.66668C14.0833 10.7824 12.5666 12.5428 10.5625 12.9242V21.6667C10.5624 21.8725 10.4842 22.0707 10.3437 22.2211C10.2031 22.3715 10.0107 22.463 9.80534 22.477C9.59996 22.4911 9.39691 22.4266 9.23722 22.2967C9.07753 22.1668 8.9731 21.9811 8.94504 21.7772L8.93746 21.6667V12.9242C7.98496 12.7421 7.12101 12.2459 6.48373 11.5149C5.84645 10.784 5.47264 9.86044 5.42204 8.89201L5.41663 8.66668V4.33334C5.41669 4.12748 5.49489 3.92932 5.63543 3.7789C5.77597 3.62848 5.96837 3.53701 6.17375 3.52298C6.37913 3.50895 6.58218 3.5734 6.74187 3.70331C6.90156 3.83322 7.00598 4.01891 7.03404 4.22284L7.04163 4.33334V8.66668C7.04163 9.88001 7.83896 10.9059 8.93746 11.2515V4.33334C8.93752 4.12748 9.01572 3.92932 9.15626 3.7789C9.2968 3.62848 9.4892 3.53701 9.69458 3.52298C9.89996 3.50895 10.103 3.5734 10.2627 3.70331C10.4224 3.83322 10.5268 4.01891 10.5549 4.22284L10.5625 4.33334V11.2504C11.0794 11.0875 11.5357 10.7733 11.8723 10.3485C12.2089 9.92363 12.4104 9.40762 12.4507 8.86709L12.4583 8.66668V4.33334C12.4583 4.11786 12.5439 3.91119 12.6963 3.75882C12.8486 3.60645 13.0553 3.52084 13.2708 3.52084ZM18.9583 14.625V5.28451C18.513 5.44212 18.1229 5.72564 17.8356 6.10064C17.5483 6.47565 17.3761 6.92599 17.3398 7.39701L17.3333 7.58334V14.625H18.9583V5.28451V14.625Z" fill="white"/>
</svg>
