<svg width="36" height="26" viewBox="0 0 36 26" fill="none" xmlns="http://www.w3.org/2000/svg">
<path fill-rule="evenodd" clip-rule="evenodd" d="M1.38462 0C1.01739 0 0.66521 0.152182 0.405544 0.423068C0.145879 0.693954 0 1.06135 0 1.44444C0 1.82753 0.145879 2.19493 0.405544 2.46582C0.66521 2.73671 1.01739 2.88889 1.38462 2.88889H34.6154C34.9826 2.88889 35.3348 2.73671 35.5945 2.46582C35.8541 2.19493 36 1.82753 36 1.44444C36 1.06135 35.8541 0.693954 35.5945 0.423068C35.3348 0.152182 34.9826 0 34.6154 0H1.38462ZM0 13C0 12.6169 0.145879 12.2495 0.405544 11.9786C0.66521 11.7077 1.01739 11.5556 1.38462 11.5556H34.6154C34.9826 11.5556 35.3348 11.7077 35.5945 11.9786C35.8541 12.2495 36 12.6169 36 13C36 13.3831 35.8541 13.7505 35.5945 14.0214C35.3348 14.2923 34.9826 14.4444 34.6154 14.4444H1.38462C1.01739 14.4444 0.66521 14.2923 0.405544 14.0214C0.145879 13.7505 0 13.3831 0 13V13ZM0 24.5556C0 24.1725 0.145879 23.8051 0.405544 23.5342C0.66521 23.2633 1.01739 23.1111 1.38462 23.1111H34.6154C34.9826 23.1111 35.3348 23.2633 35.5945 23.5342C35.8541 23.8051 36 24.1725 36 24.5556C36 24.9386 35.8541 25.306 35.5945 25.5769C35.3348 25.8478 34.9826 26 34.6154 26H1.38462C1.01739 26 0.66521 25.8478 0.405544 25.5769C0.145879 25.306 0 24.9386 0 24.5556V24.5556Z" fill="black"/>
</svg>
