<svg width="31" height="29" viewBox="0 0 31 29" fill="none" xmlns="http://www.w3.org/2000/svg">
<path d="M15.5 0C17.5554 0 19.5267 0.763837 20.9801 2.12348C22.4335 3.48311 23.25 5.32718 23.25 7.25C23.25 9.17282 22.4335 11.0169 20.9801 12.3765C19.5267 13.7362 17.5554 14.5 15.5 14.5C13.4446 14.5 11.4733 13.7362 10.0199 12.3765C8.56651 11.0169 7.75 9.17282 7.75 7.25C7.75 5.32718 8.56651 3.48311 10.0199 2.12348C11.4733 0.763837 13.4446 0 15.5 0ZM15.5 18.125C24.0637 18.125 31 21.3694 31 25.375V29H0V25.375C0 21.3694 6.93625 18.125 15.5 18.125Z" fill="black"/>
</svg>
