<svg width="22" height="22" viewBox="0 0 22 22" fill="none" xmlns="http://www.w3.org/2000/svg">
<path d="M11.3385 0C3.89231 0 0 3.85 0 8.1125C0 10.175 1.35385 12.2375 3.55385 13.3375C4.23077 13.6125 4.06154 13.3375 4.56923 11.6875C4.56923 11.55 4.56923 11.4125 4.4 11.275C1.35385 8.25 3.89231 2.3375 11 2.3375C21.3231 2.3375 19.2923 13.8875 12.8615 13.8875C11.5077 14.025 10.3231 13.2 10.3231 12.1V11.55C11 10.0375 11.5077 8.6625 11.6769 7.15C11.6769 4.2625 6.43077 4.675 6.43077 8.525C6.43077 9.2125 6.6 9.9 6.93846 10.45C6.93846 10.45 5.24615 16.0875 4.90769 17.05C4.56923 18.7 4.73846 20.35 5.07692 21.8625C4.90769 22 5.07692 22 5.07692 22H5.24615C6.43077 20.625 7.44615 19.25 8.12308 17.7375C8.29231 17.05 9.13846 14.575 9.13846 14.575C9.98461 15.5375 11.5077 16.0875 13.0308 16.0875C18.2769 16.0875 22 12.375 22 7.8375C22 3.3 17.2615 0 11.3385 0Z" fill="black"/>
</svg>
