<svg width="25" height="25" viewBox="0 0 25 25" fill="none" xmlns="http://www.w3.org/2000/svg">
<path d="M0 3.81944C0 2.80646 0.402405 1.83497 1.11869 1.11869C1.83497 0.402405 2.80646 1.38764e-07 3.81944 1.38764e-07H17.6583C18.2513 -0.000146892 18.8385 0.116549 19.3864 0.343422C19.9343 0.570294 20.4321 0.902895 20.8514 1.32222L23.6778 4.14861C24.525 4.99583 25 6.14444 25 7.34167V21.1806C25 22.1935 24.5976 23.165 23.8813 23.8813C23.165 24.5976 22.1935 25 21.1806 25H3.81944C2.80646 25 1.83497 24.5976 1.11869 23.8813C0.402405 23.165 0 22.1935 0 21.1806V3.81944ZM3.81944 2.08333C2.86111 2.08333 2.08333 2.86111 2.08333 3.81944V21.1806C2.08333 22.1389 2.86111 22.9167 3.81944 22.9167H4.16667V15.625C4.16667 14.7962 4.49591 14.0013 5.08196 13.4153C5.66801 12.8292 6.46286 12.5 7.29167 12.5H17.7083C18.5371 12.5 19.332 12.8292 19.918 13.4153C20.5041 14.0013 20.8333 14.7962 20.8333 15.625V22.9167H21.1806C22.1389 22.9167 22.9167 22.1389 22.9167 21.1806V7.34167C22.9167 6.69583 22.6611 6.07778 22.2042 5.62222L19.3778 2.79583C19.019 2.43641 18.5566 2.19842 18.0556 2.11528V5.90278C18.0556 6.31316 17.9747 6.71952 17.8177 7.09866C17.6606 7.47781 17.4304 7.8223 17.1403 8.11249C16.8501 8.40267 16.5056 8.63285 16.1264 8.7899C15.7473 8.94695 15.3409 9.02778 14.9306 9.02778H8.68056C7.85175 9.02778 7.0569 8.69854 6.47085 8.11249C5.8848 7.52643 5.55556 6.73158 5.55556 5.90278V2.08333H3.81944ZM18.75 22.9167V15.625C18.75 15.3487 18.6403 15.0838 18.4449 14.8884C18.2496 14.6931 17.9846 14.5833 17.7083 14.5833H7.29167C7.0154 14.5833 6.75045 14.6931 6.5551 14.8884C6.35975 15.0838 6.25 15.3487 6.25 15.625V22.9167H18.75ZM7.63889 2.08333V5.90278C7.63889 6.47778 8.10556 6.94444 8.68056 6.94444H14.9306C15.2068 6.94444 15.4718 6.8347 15.6671 6.63935C15.8625 6.444 15.9722 6.17904 15.9722 5.90278V2.08333H7.63889Z" fill="black"/>
</svg>
