<svg width="25" height="19" viewBox="0 0 25 19" fill="none" xmlns="http://www.w3.org/2000/svg">
<path d="M13.753 4.68182V1.15601C13.753 0.849414 13.8848 0.555379 14.1192 0.338586C14.3537 0.121793 14.6717 0 15.0033 0C15.3313 0.00127695 15.6456 0.121676 15.8785 0.335241L24.6302 8.42728C24.7474 8.53474 24.8404 8.6626 24.9038 8.80347C24.9673 8.94434 25 9.09543 25 9.24804C25 9.40065 24.9673 9.55174 24.9038 9.69261C24.8404 9.83348 24.7474 9.96134 24.6302 10.0688L15.8785 18.1608C15.7029 18.3199 15.4806 18.4276 15.2393 18.4705C14.9979 18.5134 14.7482 18.4896 14.5214 18.402C14.2947 18.3144 14.1008 18.167 13.9641 17.9781C13.8275 17.7892 13.754 17.5673 13.753 17.3401V13.7565H12.6903C10.715 13.7292 8.75699 14.0998 6.9521 14.8423C5.14722 15.5849 3.53872 16.6818 2.23826 18.0568C2.08154 18.2497 1.86346 18.3925 1.61459 18.465C1.36572 18.5376 1.09854 18.5363 0.850486 18.4614C0.598054 18.3826 0.379434 18.2314 0.226502 18.0297C0.0735703 17.828 -0.00567745 17.5864 0.000316161 17.3401C0.000316161 6.79731 10.1023 4.99394 13.753 4.68182ZM12.6903 11.4213C13.5265 11.4189 14.362 11.4691 15.1908 11.5716C15.4868 11.6131 15.7568 11.7515 15.9519 11.9615C16.1469 12.1715 16.2539 12.4393 16.2535 12.7161V14.5541L21.9797 9.24804L16.2535 3.94198V5.78003C16.2535 6.08662 16.1218 6.38065 15.8873 6.59744C15.6529 6.81424 15.3349 6.93603 15.0033 6.93603C13.8656 6.93603 4.86378 7.16723 2.91339 14.3691C5.74433 12.4393 9.17317 11.4054 12.6903 11.4213Z" fill="black"/>
</svg>
