<svg width="22" height="22" viewBox="0 0 22 22" fill="none" xmlns="http://www.w3.org/2000/svg">
<path d="M21.2889 7.74683L14.6938 6.74311L11.7455 0.484186C11.665 0.31282 11.5325 0.174096 11.3689 0.089773C10.9585 -0.122394 10.4598 0.0544119 10.2546 0.484186L7.30634 6.74311L0.711168 7.74683C0.52934 7.77403 0.363097 7.86379 0.235817 7.99979C0.0819425 8.16541 -0.00284927 8.38822 7.31104e-05 8.61927C0.00299549 8.85032 0.0933929 9.0707 0.251402 9.232L5.0231 14.1037L3.89576 20.9828C3.86932 21.1428 3.88623 21.3074 3.94457 21.4579C4.00291 21.6083 4.10035 21.7387 4.22583 21.8341C4.35131 21.9295 4.49981 21.9862 4.6545 21.9978C4.80919 22.0093 4.96388 21.9753 5.10102 21.8995L11.0001 18.6517L16.8991 21.8995C17.0601 21.9892 17.2472 22.0191 17.4264 21.9865C17.8784 21.9049 18.1823 21.4561 18.1043 20.9828L16.977 14.1037L21.7487 9.232C21.8786 9.09871 21.9643 8.92462 21.9903 8.73422C22.0604 8.2582 21.7435 7.81755 21.2889 7.74683ZM14.9691 13.4182L15.9068 19.1386L11.0001 16.4402L6.09329 19.1413L7.031 13.4209L3.06195 9.368L8.54797 8.53293L11.0001 3.3294L13.4521 8.53293L18.9382 9.368L14.9691 13.4182Z" fill="white"/>
</svg>
