<svg width="25" height="25" viewBox="0 0 25 25" fill="none" xmlns="http://www.w3.org/2000/svg">
<path d="M12.5 4.03571L14.8438 9.01786L15.2344 9.91071L16.0836 10.0446L21.3145 10.8393L17.5951 14.6786L16.9582 15.3304L17.1111 16.2232L18.0027 21.6964L13.3237 19.1161L12.5 18.75L11.7103 19.1875L7.03125 21.7321L7.88044 16.2589L8.03329 15.3661L7.40489 14.6786L3.65149 10.7946L8.88247 10L9.73166 9.86607L10.1223 8.97321L12.5 4.03571ZM12.5 0L8.63621 8.23214L0 9.54464L6.25 15.9554L4.77242 25L12.5 20.7321L20.2276 25L18.75 15.9554L25 9.55357L16.3638 8.23214L12.5 0Z" fill="black"/>
</svg>
