<svg width="21" height="17" viewBox="0 0 21 17" fill="none" xmlns="http://www.w3.org/2000/svg">
<path d="M20.6562 2.20851C19.9092 2.53077 19.0962 2.76271 18.2588 2.85304C19.1282 2.33652 19.7793 1.52052 20.0898 0.558115C19.274 1.04344 18.3803 1.38376 17.4482 1.56397C17.0587 1.14754 16.5876 0.815781 16.0642 0.589384C15.5409 0.362986 14.9765 0.246797 14.4062 0.248057C12.0991 0.248057 10.2437 2.11817 10.2437 4.4131C10.2437 4.73536 10.2827 5.05763 10.3462 5.36769C6.8916 5.18702 3.81055 3.53663 1.76221 1.00978C1.38898 1.64726 1.19339 2.37312 1.1958 3.11183C1.1958 4.55714 1.93066 5.83155 3.05127 6.58106C2.39088 6.55506 1.74595 6.37354 1.16895 6.05128V6.10255C1.16895 8.12647 2.59961 9.80372 4.50635 10.1895C4.14834 10.2825 3.78005 10.33 3.41016 10.3311C3.13916 10.3311 2.88281 10.3042 2.62402 10.2676C3.15137 11.918 4.68701 13.1167 6.51562 13.1558C5.08496 14.2764 3.29297 14.9356 1.34717 14.9356C0.998047 14.9356 0.675781 14.9233 0.341309 14.8843C2.18701 16.0684 4.37695 16.752 6.73535 16.752C14.3916 16.752 18.5811 10.4092 18.5811 4.90382C18.5811 4.72315 18.5811 4.54249 18.5688 4.36183C19.3794 3.76856 20.0898 3.0337 20.6562 2.20851Z" fill="black"/>
</svg>
