<svg width="26" height="28" viewBox="0 0 26 28" fill="none" xmlns="http://www.w3.org/2000/svg">
<path d="M13.6638 1.14872C13.5767 1.06141 13.4732 0.992143 13.3593 0.944881C13.2454 0.897619 13.1233 0.873291 13 0.873291C12.8767 0.873291 12.7546 0.897619 12.6407 0.944881C12.5268 0.992143 12.4233 1.06141 12.3363 1.14872L1.08625 12.3987C0.999248 12.4859 0.930289 12.5895 0.883317 12.7033C0.836345 12.8172 0.812281 12.9393 0.812501 13.0625V26.1875C0.812501 26.4361 0.911274 26.6746 1.08709 26.8504C1.2629 27.0262 1.50136 27.125 1.75 27.125H10.1875C10.4361 27.125 10.6746 27.0262 10.8504 26.8504C11.0262 26.6746 11.125 26.4361 11.125 26.1875V18.6875H14.875V26.1875C14.875 26.4361 14.9738 26.6746 15.1496 26.8504C15.3254 27.0262 15.5639 27.125 15.8125 27.125H24.25C24.4986 27.125 24.7371 27.0262 24.9129 26.8504C25.0887 26.6746 25.1875 26.4361 25.1875 26.1875V13.0625C25.1877 12.9393 25.1637 12.8172 25.1167 12.7033C25.0697 12.5895 25.0008 12.4859 24.9138 12.3987L22.375 9.86184V3.68747C22.375 3.43883 22.2762 3.20037 22.1004 3.02455C21.9246 2.84874 21.6861 2.74997 21.4375 2.74997H19.5625C19.3139 2.74997 19.0754 2.84874 18.8996 3.02455C18.7238 3.20037 18.625 3.43883 18.625 3.68747V6.11184L13.6638 1.14872ZM2.6875 25.25V13.4506L13 3.13809L23.3125 13.4506V25.25H16.75V17.75C16.75 17.5013 16.6512 17.2629 16.4754 17.0871C16.2996 16.9112 16.0611 16.8125 15.8125 16.8125H10.1875C9.93886 16.8125 9.7004 16.9112 9.52459 17.0871C9.34877 17.2629 9.25 17.5013 9.25 17.75V25.25H2.6875Z" fill="white"/>
</svg>
